<svg width="111" height="17" viewBox="0 0 111 17" fill="none" xmlns="http://www.w3.org/2000/svg">
<path d="M9.87239 0.217958L12.5835 5.37297L18.6438 6.19982C18.8007 6.22163 18.9308 6.3247 18.9797 6.46584C19.0285 6.60698 18.9877 6.76184 18.8743 6.86554L14.4898 10.8773L15.525 16.5431C15.5522 16.6892 15.4883 16.8371 15.3601 16.9244C15.2319 17.0117 15.0618 17.0232 14.9215 16.9542L9.50062 14.2797L4.07974 16.955C3.93951 17.0243 3.76932 17.0129 3.64107 16.9256C3.51281 16.8383 3.44886 16.6904 3.47623 16.5442L4.51141 10.8773L0.12572 6.86554C0.0122904 6.76184 -0.0285411 6.60698 0.0203278 6.46584C0.0691968 6.3247 0.19933 6.22163 0.356219 6.19982L6.41655 5.37297L9.12885 0.217958C9.19787 0.0846624 9.34228 0 9.50062 0C9.65896 0 9.80337 0.0846624 9.87239 0.217958Z" fill="#FCAD38"/>
<path d="M32.3528 0.217958L34.9212 5.37297L40.6625 6.19982C40.8112 6.22163 40.9344 6.3247 40.9807 6.46584C41.027 6.60698 40.9884 6.76184 40.8809 6.86554L36.7272 10.8773L37.7079 16.5431C37.7337 16.6892 37.6731 16.8371 37.5517 16.9244C37.4302 17.0117 37.2691 17.0232 37.1362 16.9542L32.0006 14.2797L26.865 16.955C26.7322 17.0243 26.5709 17.0129 26.4494 16.9256C26.3279 16.8383 26.2673 16.6904 26.2933 16.5442L27.274 10.8773L23.1191 6.86554C23.0116 6.76184 22.973 6.60698 23.0193 6.46584C23.0656 6.3247 23.1888 6.22163 23.3375 6.19982L29.0788 5.37297L31.6484 0.217958C31.7138 0.0846624 31.8506 0 32.0006 0C32.1506 0 32.2874 0.0846624 32.3528 0.217958Z" fill="#FCAD38"/>
<path d="M55.8724 0.217958L58.5835 5.37297L64.6438 6.19982C64.8007 6.22163 64.9308 6.3247 64.9797 6.46584C65.0285 6.60698 64.9877 6.76184 64.8743 6.86554L60.4898 10.8773L61.525 16.5431C61.5522 16.6892 61.4883 16.8371 61.3601 16.9244C61.2319 17.0117 61.0618 17.0232 60.9215 16.9542L55.5006 14.2797L50.0797 16.955C49.9395 17.0243 49.7693 17.0129 49.6411 16.9256C49.5128 16.8383 49.4489 16.6904 49.4762 16.5442L50.5114 10.8773L46.1257 6.86554C46.0123 6.76184 45.9715 6.60698 46.0203 6.46584C46.0692 6.3247 46.1993 6.22163 46.3562 6.19982L52.4165 5.37297L55.1288 0.217958C55.1979 0.0846624 55.3423 0 55.5006 0C55.659 0 55.8034 0.0846624 55.8724 0.217958Z" fill="#FCAD38"/>
<path d="M79.3528 0.217958L81.9212 5.37297L87.6625 6.19982C87.8112 6.22163 87.9344 6.3247 87.9807 6.46584C88.027 6.60698 87.9884 6.76184 87.8809 6.86554L83.7272 10.8773L84.7079 16.5431C84.7337 16.6892 84.6731 16.8371 84.5517 16.9244C84.4302 17.0117 84.2691 17.0232 84.1362 16.9542L79.0006 14.2797L73.865 16.955C73.7322 17.0243 73.5709 17.0129 73.4494 16.9256C73.3279 16.8383 73.2673 16.6904 73.2933 16.5442L74.274 10.8773L70.1191 6.86554C70.0116 6.76184 69.973 6.60698 70.0193 6.46584C70.0656 6.3247 70.1888 6.22163 70.3375 6.19982L76.0788 5.37297L78.6484 0.217958C78.7138 0.0846624 78.8506 0 79.0006 0C79.1506 0 79.2874 0.0846624 79.3528 0.217958Z" fill="#FCAD38"/>
<path d="M101.872 0.217958L104.583 5.37297L110.644 6.19982C110.801 6.22163 110.931 6.3247 110.98 6.46584C111.029 6.60698 110.988 6.76184 110.874 6.86554L106.49 10.8773L107.525 16.5431C107.552 16.6892 107.488 16.8371 107.36 16.9244C107.232 17.0117 107.062 17.0232 106.921 16.9542L101.501 14.2797L96.0797 16.955C95.9395 17.0243 95.7693 17.0129 95.6411 16.9256C95.5128 16.8383 95.4489 16.6904 95.4762 16.5442L96.5114 10.8773L92.1257 6.86554C92.0123 6.76184 91.9715 6.60698 92.0203 6.46584C92.0692 6.3247 92.1993 6.22163 92.3562 6.19982L98.4165 5.37297L101.129 0.217958C101.198 0.0846624 101.342 0 101.501 0C101.659 0 101.803 0.0846624 101.872 0.217958Z" fill="#FCAD38"/>
</svg>
